HIERARCHY
ROOT Hips
{
	OFFSET 0.000000 0.000000 0.000000 
	CHANNELS 6 Xposition Yposition Zposition Zrotation Yrotation Xrotation
	JOINT LeftUpLeg
	{
		OFFSET 1.363060 -1.794630 0.839290 
		CHANNELS 3 Zrotation Yrotation Xrotation
		JOINT LeftLeg
		{
			OFFSET 2.448110 -6.726130 0.000000 
			CHANNELS 3 Zrotation Yrotation Xrotation
			JOINT LeftFoot
			{
				OFFSET 2.562200 -7.039590 0.000000 
				CHANNELS 3 Zrotation Yrotation Xrotation
				JOINT LeftToeBase
				{
					OFFSET 0.157640 -0.433110 2.322550 
					CHANNELS 3 Zrotation Yrotation Xrotation
					End Site
					{
						OFFSET 0.000000 0.000000 0.000000 
					}
				}
			}
		}
	}
	JOINT RightUpLeg
	{
		OFFSET -1.305520 -1.794630 0.839290 
		CHANNELS 3 Zrotation Yrotation Xrotation
		JOINT RightLeg
		{
			OFFSET -2.542530 -6.985550 0.000000 
			CHANNELS 3 Zrotation Yrotation Xrotation
			JOINT RightFoot
			{
				OFFSET -2.568260 -7.056230 0.000000 
				CHANNELS 3 Zrotation Yrotation Xrotation
				JOINT RightToeBase
				{
					OFFSET -0.164730 -0.452590 2.363150 
					CHANNELS 3 Zrotation Yrotation Xrotation
					End Site
					{
						OFFSET 0.000000 0.000000 0.000000 
					}
				}
			}
		}
	}
	JOINT Spine
	{
		OFFSET 0.028270 2.035590 -0.193380 
		CHANNELS 3 Zrotation Yrotation Xrotation
		JOINT Spine1
		{
			OFFSET 0.056720 2.048850 -0.042750 
			CHANNELS 3 Zrotation Yrotation Xrotation
			JOINT Neck1
			{
				OFFSET -0.054170 1.746240 0.172020 
				CHANNELS 3 Zrotation Yrotation Xrotation
				JOINT Head
				{
					OFFSET 0.104070 1.761360 -0.123970 
					CHANNELS 3 Zrotation Yrotation Xrotation
					End Site
					{
						OFFSET 0.000000 0.000000 0.000000 
					}
				}
			}
			JOINT LeftArm
			{
				OFFSET 3.362410 1.200890 -0.311210 
				CHANNELS 3 Zrotation Yrotation Xrotation
				JOINT LeftForeArm
				{
					OFFSET 4.983000 -0.000000 -0.000000 
					CHANNELS 3 Zrotation Yrotation Xrotation
					JOINT LeftHand
					{
						OFFSET 3.483560 -0.000000 -0.000000 
						CHANNELS 3 Zrotation Yrotation Xrotation
						JOINT LeftHandIndex1
						{
							OFFSET 0.715260 -0.000000 -0.000000 
							CHANNELS 3 Zrotation Yrotation Xrotation
							End Site
							{
								OFFSET 0.000000 0.000000 0.000000 
							}
						}
					}
				}
			}
			JOINT RightArm
			{
				OFFSET -3.136600 1.374050 -0.404650 
				CHANNELS 3 Zrotation Yrotation Xrotation
				JOINT RightForeArm
				{
					OFFSET -5.241900 -0.000000 -0.000000 
					CHANNELS 3 Zrotation Yrotation Xrotation
					JOINT RightHand
					{
						OFFSET -3.444170 -0.000000 -0.000000 
						CHANNELS 3 Zrotation Yrotation Xrotation
						JOINT RightHandIndex1
						{
							OFFSET -0.622530 -0.000000 -0.000000 
							CHANNELS 3 Zrotation Yrotation Xrotation
							End Site
							{
								OFFSET 0.000000 0.000000 0.000000 
							}
						}
					}
				}
			}
		}
	}
}
MOTION
Frames: 17
Frame Time: 0.041667
-0.778685 18.265293 6.153889 -2.931862 -1.588108 -6.603186 -11.178733 -7.027170 -0.079758 1.274553 7.742347 25.495083 -0.567555 5.348154 -11.793999 9.143100 -16.898900 -56.583800 18.353270 -2.796370 13.791880 0.623628 1.002743 1.923357 0.314265 -4.310053 -11.725028 -0.175700 2.700400 -7.445700 -1.591735 1.530003 27.828666 -3.083916 1.178792 -14.762051 2.505805 -2.975783 22.402936 -0.023800 -0.996300 8.105400 -94.361992 7.372803 19.118671 23.404936 -33.134331 -6.167822 0.541349 0.133474 9.099717 -7.125000 0.000000 0.000000 100.235968 -13.108190 10.479407 -32.042493 41.028996 -9.733759 1.193356 -3.158842 8.401635 7.125000 0.000000 0.000000 
-0.778783 18.264800 6.154086 -2.953589 -1.584566 -6.607792 -11.154515 -7.016364 -0.093425 1.277967 7.747229 25.510210 -0.565876 5.338353 -11.779598 9.146900 -16.901300 -56.596700 18.376156 -2.805336 13.797433 0.623544 1.003111 1.923501 0.312805 -4.302222 -11.724264 -0.168300 2.642700 -7.285600 -1.568575 1.531409 27.838329 -3.099430 1.179080 -14.756903 2.504997 -2.944938 22.373785 -0.018900 -0.983400 8.093600 -94.363653 7.347699 19.120465 23.406882 -33.134336 -6.163810 0.537085 0.132494 9.098124 -7.125000 0.000000 0.000000 100.204570 -13.126512 10.564709 -32.059402 41.038283 -9.741263 1.192730 -3.157425 8.292640 7.125000 0.000000 0.000000 
-0.778487 18.265293 6.154382 -2.958149 -1.576050 -6.599598 -11.155573 -7.075313 -0.085363 1.279016 7.752522 25.523324 -0.564197 5.340654 -11.810091 9.135700 -16.894200 -56.558200 18.385791 -2.812893 13.785374 0.623947 1.003644 1.923565 0.317128 -4.323819 -11.723997 -0.172000 2.671700 -7.366100 -1.601939 1.544197 27.859175 -3.111645 1.180536 -14.740555 2.567129 -2.927173 22.394904 0.000800 -0.969600 8.103500 -94.347196 7.292674 19.143281 23.402553 -33.129262 -6.157797 0.533535 0.134944 9.125645 -7.125000 0.000000 0.000000 100.194140 -13.142055 10.596219 -32.117367 41.085647 -9.773064 1.195868 -3.155673 8.274654 7.125000 0.000000 0.000000 
-0.777895 18.265984 6.155073 -2.957690 -1.555237 -6.591512 -11.156074 -7.145289 -0.074059 1.278268 7.756756 25.530457 -0.565326 5.354717 -11.846420 9.131400 -16.891500 -56.543300 18.393757 -2.834224 13.774741 0.624185 1.004746 1.924189 0.317684 -4.330553 -11.734529 -0.174800 2.693000 -7.425200 -1.713266 1.564165 27.892423 -3.117244 1.178461 -14.710696 2.619764 -2.920777 22.392146 0.010900 -0.960000 8.109100 -94.303499 7.251401 19.196269 23.415887 -33.143294 -6.163503 0.533531 0.139970 9.099857 -7.125000 0.000000 0.000000 100.211919 -13.127803 10.593607 -32.147404 41.117726 -9.793672 1.200424 -3.156748 8.292534 7.125000 0.000000 0.000000 
-0.777895 18.265886 6.155073 -2.962380 -1.528410 -6.596320 -11.134429 -7.086645 -0.108840 1.281448 7.758606 25.535822 -0.562823 5.329671 -11.783177 9.152600 -16.904900 -56.616300 18.397287 -2.864808 13.777636 0.623629 1.005216 1.924737 0.313895 -4.309490 -11.730608 -0.165900 2.624100 -7.234000 -1.730969 1.564402 27.895857 -3.123731 1.175279 -14.710559 2.650712 -2.918144 22.392168 0.019400 -0.956000 8.109100 -94.287900 7.267320 19.233023 23.457701 -33.187137 -6.184262 0.534899 0.143088 9.052211 -7.125000 0.000000 0.000000 100.205407 -13.091605 10.560710 -32.113198 41.093924 -9.783172 1.203156 -3.160205 8.321686 7.125000 0.000000 0.000000 
-0.778685 18.265589 6.154678 -2.951493 -1.488882 -6.592485 -11.128686 -7.019285 -0.154597 1.284640 7.757919 25.535887 -0.554135 5.276692 -11.700180 9.170300 -16.916100 -56.677300 18.381437 -2.901005 13.766361 0.623025 1.004806 1.924992 0.311750 -4.296933 -11.726333 -0.162700 2.598700 -7.163400 -1.690423 1.556207 27.868835 -3.124980 1.176182 -14.735255 2.841982 -2.958505 22.533691 0.076300 -0.958500 8.152700 -94.288727 7.286937 19.250401 23.468161 -33.198938 -6.190468 0.535915 0.142637 9.061103 -7.125000 0.000000 0.000000 100.161718 -13.086302 10.551096 -32.093016 41.072337 -9.778890 1.204141 -3.161735 8.344534 7.125000 0.000000 0.000000 
-0.779277 18.266280 6.154481 -2.920911 -1.443743 -6.583405 -11.146948 -7.036127 -0.163187 1.284396 7.757395 25.531383 -0.541848 5.230172 -11.689697 9.166600 -16.913700 -56.664500 18.356951 -2.941343 13.749507 0.622942 1.004816 1.925314 0.315751 -4.315562 -11.721599 -0.169000 2.648700 -7.302300 -1.760456 1.568931 27.843373 -3.115952 1.178577 -14.750833 3.118534 -3.017794 22.764309 0.152100 -0.958300 8.228000 -94.280348 7.278413 19.192544 23.446625 -33.176792 -6.180992 0.535538 0.138339 9.188865 -7.125000 0.000000 0.000000 100.131946 -13.108453 10.601624 -32.092439 41.064814 -9.779929 1.198700 -3.161277 8.366207 7.125000 0.000000 0.000000 
-0.779672 18.267267 6.154382 -2.908338 -1.418196 -6.580829 -11.149871 -7.065894 -0.156219 1.282773 7.758006 25.527977 -0.538367 5.225434 -11.717095 9.155700 -16.906900 -56.627200 18.353425 -2.968936 13.748129 0.623041 1.005283 1.925678 0.318848 -4.330235 -11.719728 -0.175200 2.696500 -7.435000 -1.859085 1.592929 27.826322 -3.106315 1.182228 -14.756939 3.148553 -3.027987 22.864193 0.157400 -0.956900 8.259000 -94.257914 7.272073 19.150333 23.447566 -33.175197 -6.180265 0.534294 0.136181 9.275285 -7.125000 0.000000 0.000000 100.119361 -13.121966 10.669231 -32.082971 41.054697 -9.775704 1.190252 -3.161600 8.350652 7.125000 0.000000 0.000000 
-0.780757 18.267563 6.152902 -2.936667 -1.396337 -6.564603 -11.128031 -7.126107 -0.162499 1.280795 7.759411 25.528058 -0.547747 5.265912 -11.743800 9.149900 -16.903200 -56.607100 18.384637 -2.989491 13.728070 0.622923 1.005193 1.925434 0.319485 -4.327391 -11.704461 -0.173900 2.686700 -7.407600 -1.823314 1.595952 27.801087 -3.103721 1.186604 -14.764066 2.968091 -3.020892 22.868847 0.108100 -0.969400 8.254400 -94.240597 7.290861 19.185238 23.474050 -33.198092 -6.191552 0.534270 0.136815 9.213499 -7.125000 0.000000 0.000000 100.074857 -13.130854 10.663096 -32.124505 41.083242 -9.798077 1.206083 -3.159473 8.439454 7.125000 0.000000 0.000000 
-0.782139 18.268155 6.150633 -2.982737 -1.364393 -6.533314 -11.082830 -7.170973 -0.203314 1.281689 7.761732 25.532842 -0.547929 5.261292 -11.726875 9.149600 -16.903000 -56.606000 18.428218 -3.014592 13.686172 0.622560 1.004683 1.925025 0.316408 -4.307251 -11.690849 -0.164400 2.612600 -7.201900 -1.703483 1.575079 27.774790 -3.112564 1.185510 -14.769685 2.877960 -3.047615 22.969848 0.085300 -0.989600 8.280200 -94.262071 7.311621 19.152385 23.513054 -33.236054 -6.209429 0.533778 0.136251 9.189819 -7.125000 0.000000 0.000000 100.008967 -13.152095 10.645959 -32.201210 41.131908 -9.832988 1.227610 -3.153335 8.542131 7.125000 0.000000 0.000000 
-0.783125 18.268649 6.149251 -2.995360 -1.338807 -6.515576 -11.049042 -7.158234 -0.245627 1.284649 7.765188 25.539277 -0.536892 5.209699 -11.680028 9.153200 -16.905300 -56.618500 18.448936 -3.038170 13.665459 0.622504 1.004743 1.925418 0.310248 -4.286042 -11.714908 -0.156800 2.551400 -7.032100 -1.729073 1.582527 27.740508 -3.113858 1.186179 -14.775147 2.945549 -3.095038 23.086855 0.099100 -1.002800 8.311800 -94.280504 7.314152 19.024891 23.531465 -33.254619 -6.218349 0.532521 0.132928 9.318686 -7.125000 0.000000 0.000000 100.007877 -13.182663 10.672035 -32.218445 41.136821 -9.834060 1.220462 -3.149664 8.355502 7.125000 0.000000 0.000000 
-0.783717 18.267760 6.148758 -2.975487 -1.323897 -6.516179 -11.061459 -7.182703 -0.237352 1.283054 7.766813 25.537627 -0.541190 5.229323 -11.690976 9.158700 -16.908700 -56.637300 18.443409 -3.055071 13.668086 0.622175 1.005074 1.926022 0.304427 -4.260569 -11.725791 -0.150400 2.498700 -6.886000 -1.856164 1.615807 27.700854 -3.102443 1.192786 -14.784775 3.094673 -3.143777 23.170620 0.133600 -1.009500 8.336000 -94.278302 7.311380 18.904860 23.513738 -33.236626 -6.211545 0.532527 0.129252 9.471078 -7.125000 0.000000 0.000000 100.032659 -13.196831 10.685350 -32.201643 41.121906 -9.823425 1.210972 -3.149812 8.162653 7.125000 0.000000 0.000000 
-0.783915 18.267366 6.148166 -2.939706 -1.312842 -6.515173 -11.110358 -7.241278 -0.205983 1.277987 7.762898 25.525455 -0.549201 5.273547 -11.750302 9.148800 -16.902500 -56.603200 18.406218 -3.058720 13.662280 0.621602 1.004566 1.926098 0.301312 -4.241725 -11.718664 -0.146100 2.463600 -6.788700 -1.876918 1.628619 27.695851 -3.085967 1.203139 -14.786655 3.283111 -3.190415 23.253629 0.189500 -1.016400 8.368500 -94.285999 7.297096 18.869855 23.481076 -33.204529 -6.197884 0.533366 0.127949 9.511335 -7.125000 0.000000 0.000000 99.991728 -13.191994 10.715409 -32.204169 41.120894 -9.829616 1.211211 -3.150283 8.118440 7.125000 0.000000 0.000000 
-0.784013 18.268353 6.147475 -2.899974 -1.294433 -6.516804 -11.154089 -7.245990 -0.194756 1.275940 7.756780 25.511856 -0.547276 5.263536 -11.742179 9.130900 -16.891200 -56.541800 18.356438 -3.066075 13.651759 0.621394 1.003927 1.925910 0.305814 -4.258521 -11.703991 -0.151500 2.507800 -6.911400 -1.854305 1.632895 27.715888 -3.063475 1.214665 -14.779602 3.334844 -3.216390 23.290940 0.208300 -1.026500 8.387400 -94.294695 7.276119 18.911424 23.458662 -33.181031 -6.185589 0.532225 0.128858 9.477532 -7.125000 0.000000 0.000000 99.946422 -13.176549 10.729243 -32.211418 41.125590 -9.838466 1.211017 -3.150660 8.105875 7.125000 0.000000 0.000000 
-0.784408 18.269142 6.146389 -2.860904 -1.262953 -6.537310 -11.189408 -7.236591 -0.178925 1.275181 7.751107 25.499249 -0.546463 5.247094 -11.691146 9.117700 -16.882800 -56.496100 18.311134 -3.093725 13.657621 0.620968 1.004007 1.926193 0.309902 -4.270701 -11.684380 -0.154600 2.533900 -6.983700 -1.882886 1.641703 27.758745 -3.031680 1.223397 -14.770785 3.238842 -3.224372 23.291232 0.180700 -1.038900 8.395500 -94.304775 7.248405 18.943986 23.455053 -33.176456 -6.180538 0.529532 0.129933 9.474885 -7.125000 0.000000 0.000000 99.916386 -13.143411 10.759190 -32.207880 41.123662 -9.836390 1.209159 -3.150150 8.056646 7.125000 0.000000 0.000000 
-0.784902 18.268846 6.144416 -2.869353 -1.241625 -6.569893 -11.181936 -7.247834 -0.148260 1.274148 7.745874 25.487373 -0.545394 5.237253 -11.671101 9.117700 -16.882900 -56.496300 18.313063 -3.122783 13.681844 0.620533 1.004433 1.926860 0.305134 -4.251322 -11.696134 -0.148700 2.485100 -6.848300 -1.862218 1.625556 27.807916 -3.020607 1.218745 -14.771754 3.143669 -3.217188 23.273573 0.155000 -1.044500 8.398200 -94.325077 7.223044 18.898446 23.448873 -33.170845 -6.176912 0.527997 0.129140 9.524607 -7.125000 0.000000 0.000000 99.860335 -13.117300 10.870235 -32.210159 41.122878 -9.834496 1.208677 -3.148124 7.963632 7.125000 0.000000 0.000000 
-0.785494 18.267760 6.142245 -2.913171 -1.239036 -6.594541 -11.143955 -7.238546 -0.132958 1.273702 7.742868 25.481091 -0.550844 5.251855 -11.656381 9.136000 -16.894400 -56.559100 18.350497 -3.135260 13.703037 0.620790 1.004238 1.926785 0.304915 -4.257489 -11.711161 -0.150700 2.501500 -6.893800 -1.764224 1.592444 27.798793 -3.022232 1.209027 -14.794809 3.051677 -3.196629 23.309544 0.132600 -1.042000 8.404800 -94.362501 7.228581 18.773899 23.411804 -33.131929 -6.160914 0.527978 0.124812 9.615388 -7.125000 0.000000 0.000000 99.806027 -13.132558 10.953833 -32.228615 41.130683 -9.840468 1.213472 -3.145396 7.960959 7.125000 0.000000 0.000000 
